<svg width="100" height="100" viewBox="0 0 100 100" fill="none" xmlns="http://www.w3.org/2000/svg">
<circle cx="50" cy="50" r="50" fill="#101010"/>
<mask id="mask0_366_18" style="mask-type:alpha" maskUnits="userSpaceOnUse" x="0" y="0" width="100" height="100">
<circle cx="50" cy="50" r="50" fill="#101010"/>
</mask>
<g mask="url(#mask0_366_18)">
<path d="M72.2 82.59H92.92V91.48H72.2V82.59ZM68.84 40.94H97.54V96.45H87.95V49.76H77.94V96.94H68.84V40.94ZM48.19 41.57H57.5V100.37H48.19V41.57ZM35.94 55.22H67.16V63.83H35.94V55.22ZM47.56 58.51L53.65 60.61C52.95 63.4567 52.0867 66.3967 51.06 69.43C50.08 72.4167 48.96 75.3567 47.7 78.25C46.4867 81.0967 45.1567 83.7567 43.71 86.23C42.2633 88.7033 40.7233 90.8267 39.09 92.6C38.67 91.2467 37.9933 89.7533 37.06 88.12C36.1267 86.4867 35.2633 85.0633 34.47 83.85C35.9167 82.3567 37.2933 80.6067 38.6 78.6C39.9533 76.5933 41.19 74.47 42.31 72.23C43.4767 69.9433 44.5033 67.6333 45.39 65.3C46.2767 62.9667 47 60.7033 47.56 58.51ZM61.63 34.92L67.65 42.2C64.8033 43.18 61.7467 44.0667 58.48 44.86C55.2133 45.6533 51.8767 46.33 48.47 46.89C45.0633 47.45 41.7733 47.9167 38.6 48.29C38.46 47.2633 38.1333 46.05 37.62 44.65C37.1067 43.2033 36.5933 41.99 36.08 41.01C39.1133 40.59 42.1933 40.0767 45.32 39.47C48.4467 38.8633 51.41 38.1633 54.21 37.37C57.01 36.5767 59.4833 35.76 61.63 34.92ZM56.59 63.97C57.01 64.3433 57.6167 64.95 58.41 65.79C59.25 66.63 60.1367 67.5867 61.07 68.66C62.0033 69.6867 62.9367 70.7367 63.87 71.81C64.8033 72.8367 65.62 73.7933 66.32 74.68C67.0667 75.52 67.6033 76.1267 67.93 76.5L62.61 84.2C62.05 83.08 61.3033 81.82 60.37 80.42C59.4833 78.9733 58.55 77.5033 57.57 76.01C56.59 74.5167 55.61 73.1167 54.63 71.81C53.6967 70.4567 52.9033 69.3133 52.25 68.38L56.59 63.97Z" fill="white"/>
<path d="M-6.14 9.56H50V18.8H-6.14V9.56ZM-9.92 39.24H54.13V48.62H-9.92V39.24ZM-2.15 23.21L6.32 20.69C7.11333 22.1367 7.86 23.7 8.56 25.38C9.30667 27.0133 9.96 28.6467 10.52 30.28C11.08 31.8667 11.4767 33.29 11.71 34.55L2.68 37.42C2.49333 36.16 2.14333 34.7367 1.63 33.15C1.16333 31.5167 0.603334 29.8367 -0.0499998 28.11C-0.703333 26.3367 -1.40333 24.7033 -2.15 23.21ZM37.54 20.55L47.48 23.07C46.6867 24.7967 45.8467 26.5233 44.96 28.25C44.0733 29.9767 43.21 31.61 42.37 33.15C41.5767 34.69 40.8067 36.0433 40.06 37.21L31.87 34.83C32.57 33.4767 33.27 31.9833 33.97 30.35C34.7167 28.7167 35.3933 27.06 36 25.38C36.6067 23.6533 37.12 22.0433 37.54 20.55ZM17.1 13.48H26.83V71.37H17.1V13.48Z" fill="white"/>
</g>
</svg>
